<mxfile host="app.diagrams.net" modified="2022-02-01T01:16:47.255Z" agent="5.0 (Macintosh; Intel Mac OS X 10_15_7) AppleWebKit/605.1.15 (KHTML, like Gecko) Version/15.2 Safari/605.1.15" etag="wAjOv3ZiGOkJoQUs3UvL" version="16.5.2" type="github">
  <diagram name="Page-1" id="b520641d-4fe3-3701-9064-5fc419738815">
    <mxGraphModel dx="649" dy="739" grid="1" gridSize="10" guides="1" tooltips="1" connect="1" arrows="1" fold="1" page="1" pageScale="1" pageWidth="1100" pageHeight="850" background="none" math="0" shadow="0">
      <root>
        <mxCell id="0" />
        <mxCell id="1" parent="0" />
        <mxCell id="7OrzuZaZnX4SddXGl1dX-1" value="Begin" style="ellipse;whiteSpace=wrap;html=1;" vertex="1" parent="1">
          <mxGeometry x="180" y="70" width="120" height="80" as="geometry" />
        </mxCell>
        <mxCell id="7OrzuZaZnX4SddXGl1dX-2" value="" style="endArrow=classic;html=1;rounded=0;exitX=0.5;exitY=1;exitDx=0;exitDy=0;" edge="1" parent="1" source="7OrzuZaZnX4SddXGl1dX-1" target="7OrzuZaZnX4SddXGl1dX-3">
          <mxGeometry width="50" height="50" relative="1" as="geometry">
            <mxPoint x="210" y="320" as="sourcePoint" />
            <mxPoint x="240" y="200" as="targetPoint" />
          </mxGeometry>
        </mxCell>
        <mxCell id="7OrzuZaZnX4SddXGl1dX-3" value="Print &quot;Hello World&quot;" style="ellipse;whiteSpace=wrap;html=1;" vertex="1" parent="1">
          <mxGeometry x="180" y="200" width="120" height="80" as="geometry" />
        </mxCell>
        <mxCell id="7OrzuZaZnX4SddXGl1dX-4" value="" style="endArrow=classic;html=1;rounded=0;exitX=0.5;exitY=1;exitDx=0;exitDy=0;" edge="1" parent="1" source="7OrzuZaZnX4SddXGl1dX-3" target="7OrzuZaZnX4SddXGl1dX-5">
          <mxGeometry width="50" height="50" relative="1" as="geometry">
            <mxPoint x="240" y="320" as="sourcePoint" />
            <mxPoint x="240" y="320" as="targetPoint" />
          </mxGeometry>
        </mxCell>
        <mxCell id="7OrzuZaZnX4SddXGl1dX-5" value="End" style="ellipse;whiteSpace=wrap;html=1;" vertex="1" parent="1">
          <mxGeometry x="180" y="330" width="120" height="80" as="geometry" />
        </mxCell>
        <mxCell id="7OrzuZaZnX4SddXGl1dX-6" value="Begin" style="whiteSpace=wrap;html=1;aspect=fixed;" vertex="1" parent="1">
          <mxGeometry x="420" y="70" width="80" height="80" as="geometry" />
        </mxCell>
        <mxCell id="7OrzuZaZnX4SddXGl1dX-7" value="" style="endArrow=classic;html=1;rounded=0;" edge="1" parent="1" target="7OrzuZaZnX4SddXGl1dX-8">
          <mxGeometry width="50" height="50" relative="1" as="geometry">
            <mxPoint x="460" y="150" as="sourcePoint" />
            <mxPoint x="460" y="200" as="targetPoint" />
            <Array as="points">
              <mxPoint x="460" y="150" />
            </Array>
          </mxGeometry>
        </mxCell>
        <mxCell id="7OrzuZaZnX4SddXGl1dX-8" value="&lt;font style=&quot;font-size: 9px&quot;&gt;Name=input(enteryourname:&quot;)&lt;/font&gt;" style="whiteSpace=wrap;html=1;aspect=fixed;align=left;" vertex="1" parent="1">
          <mxGeometry x="420" y="200" width="80" height="80" as="geometry" />
        </mxCell>
        <mxCell id="7OrzuZaZnX4SddXGl1dX-9" value="" style="endArrow=classic;html=1;rounded=0;" edge="1" parent="1" target="7OrzuZaZnX4SddXGl1dX-10">
          <mxGeometry width="50" height="50" relative="1" as="geometry">
            <mxPoint x="459.5" y="280" as="sourcePoint" />
            <mxPoint x="459.5" y="330" as="targetPoint" />
            <Array as="points">
              <mxPoint x="459.5" y="280" />
            </Array>
          </mxGeometry>
        </mxCell>
        <mxCell id="7OrzuZaZnX4SddXGl1dX-10" value="Print(&quot;hi&quot;, name&quot;" style="whiteSpace=wrap;html=1;aspect=fixed;" vertex="1" parent="1">
          <mxGeometry x="420" y="330" width="80" height="80" as="geometry" />
        </mxCell>
        <mxCell id="7OrzuZaZnX4SddXGl1dX-11" value="" style="endArrow=classic;html=1;rounded=0;" edge="1" parent="1" target="7OrzuZaZnX4SddXGl1dX-12">
          <mxGeometry width="50" height="50" relative="1" as="geometry">
            <mxPoint x="459.5" y="410" as="sourcePoint" />
            <mxPoint x="459.5" y="460" as="targetPoint" />
            <Array as="points">
              <mxPoint x="459.5" y="410" />
            </Array>
          </mxGeometry>
        </mxCell>
        <mxCell id="7OrzuZaZnX4SddXGl1dX-12" value="End" style="whiteSpace=wrap;html=1;aspect=fixed;" vertex="1" parent="1">
          <mxGeometry x="420" y="460" width="80" height="80" as="geometry" />
        </mxCell>
      </root>
    </mxGraphModel>
  </diagram>
</mxfile>
